<?xml version="1.0" encoding="utf-8"?>
<!-- Generator: Adobe Illustrator 27.9.0, SVG Export Plug-In . SVG Version: 6.00 Build 0)  -->
<!DOCTYPE svg PUBLIC "-//W3C//DTD SVG 1.1//EN" "http://www.w3.org/Graphics/SVG/1.1/DTD/svg11.dtd" [
	<!ENTITY ns_extend "http://ns.adobe.com/Extensibility/1.0/">
	<!ENTITY ns_ai "http://ns.adobe.com/AdobeIllustrator/10.0/">
	<!ENTITY ns_graphs "http://ns.adobe.com/Graphs/1.0/">
	<!ENTITY ns_vars "http://ns.adobe.com/Variables/1.0/">
	<!ENTITY ns_imrep "http://ns.adobe.com/ImageReplacement/1.0/">
	<!ENTITY ns_sfw "http://ns.adobe.com/SaveForWeb/1.0/">
	<!ENTITY ns_custom "http://ns.adobe.com/GenericCustomNamespace/1.0/">
	<!ENTITY ns_adobe_xpath "http://ns.adobe.com/XPath/1.0/">
]>
<svg version="1.1" id="Layer_1" xmlns:x="&ns_extend;" xmlns:i="&ns_ai;" xmlns:graph="&ns_graphs;"
	 xmlns="http://www.w3.org/2000/svg" xmlns:xlink="http://www.w3.org/1999/xlink" x="0px" y="0px" viewBox="0 0 167.9 206.7"
	 style="enable-background:new 0 0 167.9 206.7;" xml:space="preserve">
<style type="text/css">
	.st0{fill-rule:evenodd;clip-rule:evenodd;fill:#FFFFFF;}
</style>
<metadata>
	<sfw  xmlns="&ns_sfw;">
		<slices></slices>
		<sliceSourceBounds  bottomLeftOrigin="true" height="187.6" width="155" x="590.1" y="291"></sliceSourceBounds>
	</sfw>
</metadata>
<path class="st0" d="M56.3,18.1c0,3.1,1.6,4.2,1.8,6.6c-3.1,0.3-6,2.7-6,6v10.2C30.9,45.4,8.9,69.3,9,95.4
	c6.7,5.6,16.5,9.9,24.8,13.2c0.5-0.4,1.5-3.2,1.5-4.1c0-1.7-2.4-3.1-2.4-7.2c0-10.7,4.9-22.2,18-22.2c9.2,0,12.5,3.6,18,9.6
	c4.9-5.9,7.5-9.6,16.2-9.6c13.6,0,18.7,9.5,19.8,21c0.7,5.2-4,8-4,8.1c-1.1,1.7-0.2,3,0.5,4.5c3.4-0.5,26.4-7.6,26.4-10.8
	c0-40.2-33.5-54.6-47.6-56.9c-0.3-1.8,0.4-5.6-0.4-10.8c-0.7-2.7-2.3-5.2-5.4-5.5c0.7-2.7,1.8-2.5,1.8-6.7c0-5.6-4.4-9.5-10.1-9.5
	C60,8.9,56.3,12.3,56.3,18.1"/>
<path class="st0" d="M143.9,152.4c-8.7-7-19.8-6.1-26.6-1.9c-11.2,7-13.5,19.2-8.2,29.7l15.9-8.4l-9.6,2.6l-0.5-2.2l9.4-2.1
	l-9.7-0.3l0.1-2.5l9.7,0.8l-9.1-3.6l1.2-2.4l8.8,4.4l-6.9-6.8l2-1.7l6.5,7.3l-3.8-8.8l2.3-0.9l3.2,9.1l-0.1-9.4l2.4,0l-0.3,9.4
	l3.5-8.8l2.1,0.9l-3.7,8.9L143.9,152.4z"/>
<path class="st0" d="M143.9,114.7l-3.7-2.7l-4.6,1.3l-3.5,25.7l0.6-26l-3.8-1.9l-4.2,2l1.5,26.1l-4.7-25.8l-4.5-1.1l-3,2.6l5.7,25.2
	l-9.3-24.2l-4.8-0.2l-2.5,3.2l11.4,24.2l-14.3-22.7l-4.3,0.5l-1.8,3.5l15.5,21.5l-18.5-19.1l-4.2,1.2l-1,3.8l19.3,18.1l-21.7-15.3
	l-4.1,2.3l-0.4,4.1c0,3.5,20,10.6,22.2,14L77,144.7l-2.6,1.9l1.1,5.9l23.9,7.8l-26.3-5.9l-2.8,3.4l1.2,5l26.7,3.7L71,165.4l-1.9,3.9
	l2.1,5l26.7-1.7l-26.2,4.7l-1.4,4.8l2.9,3l26-6.2l-24.9,9.2l0,5.2l3.5,2.7l28.3-14.2c-6.7-12.1-2.7-27.2,9.9-34.4
	c9.1-5.2,21.6-4.6,29.8,2.4c2.1-4.5,16.4-23.2,18-25.8l-2.2-3.8l-4.9-0.6c-2.7,3.6-9.4,19-13.4,22.5l10.8-23.8l-2.9-3.3l-4.8,0.4
	c-2.3,7.1-6.5,17.7-9.3,24.6L143.9,114.7z"/>
<path class="st0" d="M76.4,111.4c4.9-3,13.2-4.2,20.2-5.9c-4.8,2.5-9.9,4.4-14.2,8.3C79.9,114.3,77.8,113.5,76.4,111.4"/>
<path class="st0" d="M63.1,111.4c-4.9-3-13.2-4.2-20.2-5.9c4.8,2.5,9.9,4.4,14.2,8.3C59.7,114.3,61.8,113.5,63.1,111.4"/>
<path class="st0" d="M129.2,167c1.4,0,2.6,1.1,2.6,2.5c0,1.4-1.2,2.5-2.6,2.5c-1.4,0-2.6-1.1-2.6-2.5
	C126.7,168.2,127.8,167,129.2,167"/>
</svg>
