<?xml version="1.0" encoding="utf-8"?>
<!-- Generator: Adobe Illustrator 27.9.0, SVG Export Plug-In . SVG Version: 6.00 Build 0)  -->
<!DOCTYPE svg PUBLIC "-//W3C//DTD SVG 1.1//EN" "http://www.w3.org/Graphics/SVG/1.1/DTD/svg11.dtd" [
	<!ENTITY ns_extend "http://ns.adobe.com/Extensibility/1.0/">
	<!ENTITY ns_ai "http://ns.adobe.com/AdobeIllustrator/10.0/">
	<!ENTITY ns_graphs "http://ns.adobe.com/Graphs/1.0/">
	<!ENTITY ns_vars "http://ns.adobe.com/Variables/1.0/">
	<!ENTITY ns_imrep "http://ns.adobe.com/ImageReplacement/1.0/">
	<!ENTITY ns_sfw "http://ns.adobe.com/SaveForWeb/1.0/">
	<!ENTITY ns_custom "http://ns.adobe.com/GenericCustomNamespace/1.0/">
	<!ENTITY ns_adobe_xpath "http://ns.adobe.com/XPath/1.0/">
]>
<svg version="1.1" id="Layer_1" xmlns:x="&ns_extend;" xmlns:i="&ns_ai;" xmlns:graph="&ns_graphs;"
	 xmlns="http://www.w3.org/2000/svg" xmlns:xlink="http://www.w3.org/1999/xlink" x="0px" y="0px" viewBox="0 0 666.4 149.6"
	 style="enable-background:new 0 0 666.4 149.6;" xml:space="preserve">
<style type="text/css">
	.st0{fill-rule:evenodd;clip-rule:evenodd;fill:#FFFFFF;}
</style>
<metadata>
	<sfw  xmlns="&ns_sfw;">
		<slices></slices>
		<sliceSourceBounds  bottomLeftOrigin="true" height="141.3" width="650" x="85" y="344.2"></sliceSourceBounds>
	</sfw>
</metadata>
<path class="st0" d="M96,43.6c0,3,6.5,12.4,8.7,12.4c2.8,0,9.5-6.2,13.7-6.2c11.9,0,15.5,28.3,14.9,52.1
	c-0.3,13.3-7.5,29.8-7.5,32.2c0,4.1,7.1,8,10,9.9c11.7-14.1,17.4-46.9,17.4-63.2c0-24.9-8.9-56.9-17.5-73.1
	C128.6,9.3,96,39.4,96,43.6z M43.1,31C62.3,34.4,80,72.1,84.8,88.2c3.8-5.3,14.9-22.6,14.9-27.3C86.7,38,59.6,18.5,47.6,17.6
	L43.1,31z M42.5,13.8c-3.4-3.2-4.3-5.7-7.6-5.7C-8.4,39.3,11.3,120.9,20.1,145.2l28.6-13.7C28.3,95.1,24.2,61.6,42.5,13.8z
	 M371.7,84.5c0,3.2,0.5,5.6,1.2,8.7c18.9-9,44.5,0.9,52.2,9.9c4.8,0,8.7-17.1,8.7-22.3C433.9,70.1,378.4,69.3,371.7,84.5z M277,72.9
	c2.6-1.8,4.4-4.9,6.5-7.3c-9.5-5.5-19.9-27.2-22.9-39.4c-0.8-3.3-1.8-21.1-2-21.4c-10.2,5.2-17.9,12.3-22.3,14.8
	c-6.3,4.3,8.4,26.8,11.7,31.7C251.6,56.4,273.1,74,277,72.9z M379.3,131.5c-28.5-37.2-18.5-63.4-8.5-109.2
	c-56.3,39.1-26.1,102.2-14.9,122L379.3,131.5z M460.3,77.3c0-38.3-23.8-69.6-62.2-68.7c-16.1,0-24.4,14.8-26.1,27.3
	c5.9-4.4,9.2-6.2,21.1-6.2c60.2,0,50.7,69.5,35.1,109.1l10.9,5.4C448.2,125.4,460.3,104.3,460.3,77.3z M653.1,12.4L640.8,7
	c-9.5,28.1-13.9,53.5-13.9,84.9c0,16.4,1.4,36.5,4.3,54.1l26.8-14.4c-1.2-5-5.5-28.7-7.2-36.3C643.7,63.2,649,41,653.1,12.4z
	 M206.4,13.8l-13.3-6.4c-10.7,40.9-22.6,90.3-5.5,137c5.3-2.7,13.4-7.6,24-10.3C202.1,97.2,196.8,61.3,206.4,13.8z M319.6,10.8
	c3.5-0.8,13.6-3.6,21.7-3.4c-38.4,45.2-46.8,78.2-57.4,127c-19.6,6.8-24,7.6-30.6,10.3c0.4-1.8,0.7-5,2.8-12.1
	C262.8,109.6,292.9,48.5,319.6,10.8z M519.9,127c-1.3-0.1-24.1,8.4-25.3,8.1c9.5,4.7,27.8,8.6,43.8,8.6c26.1,0,59.8-21.1,59.5-49.6
	c-0.4-45.6-51.2-42.5-71.2-13c26.5-15.8,42.1-0.3,42.6,17.4C569.8,115.6,540.7,131.9,519.9,127 M576.6,56.8c6-2,9.2-2.2,12.9-6.2
	c3.7-4.1,6.8-9,6.2-14.8c-4.6-47-88.5-31.4-110.6-13.1c-2.9,9.1-6.8,18.8-11.7,29.2c16.6-18.3,91.6-45.5,102.8-19.1
	c4.9,11.4-10.7,19-20.9,24.8C566.7,55.4,579.3,57.5,576.6,56.8z M514.4,121.7c2.7-11.7,1.7-65.3,6.2-85.8
	c-0.1,2.4-25.5,15.1-25.1,17.4c2.9,17.6,6.4,54.6,9.7,70.2C505.8,126.2,509.3,123.1,514.4,121.7"/>
</svg>
