<?xml version="1.0" encoding="utf-8"?>
<!-- Generator: Adobe Illustrator 27.9.0, SVG Export Plug-In . SVG Version: 6.00 Build 0)  -->
<!DOCTYPE svg PUBLIC "-//W3C//DTD SVG 1.1//EN" "http://www.w3.org/Graphics/SVG/1.1/DTD/svg11.dtd" [
	<!ENTITY ns_extend "http://ns.adobe.com/Extensibility/1.0/">
	<!ENTITY ns_ai "http://ns.adobe.com/AdobeIllustrator/10.0/">
	<!ENTITY ns_graphs "http://ns.adobe.com/Graphs/1.0/">
	<!ENTITY ns_vars "http://ns.adobe.com/Variables/1.0/">
	<!ENTITY ns_imrep "http://ns.adobe.com/ImageReplacement/1.0/">
	<!ENTITY ns_sfw "http://ns.adobe.com/SaveForWeb/1.0/">
	<!ENTITY ns_custom "http://ns.adobe.com/GenericCustomNamespace/1.0/">
	<!ENTITY ns_adobe_xpath "http://ns.adobe.com/XPath/1.0/">
]>
<svg version="1.1" id="Layer_1" xmlns:x="&ns_extend;" xmlns:i="&ns_ai;" xmlns:graph="&ns_graphs;"
	 xmlns="http://www.w3.org/2000/svg" xmlns:xlink="http://www.w3.org/1999/xlink" x="0px" y="0px" viewBox="0 0 671 282.6"
	 style="enable-background:new 0 0 671 282.6;" xml:space="preserve">
<style type="text/css">
	.st0{fill-rule:evenodd;clip-rule:evenodd;fill:#FFFFFF;}
	.st1{fill:#ED2029;}
	.st2{fill-rule:evenodd;clip-rule:evenodd;fill:#ED2029;}
</style>
<metadata>
	<sfw  xmlns="&ns_sfw;">
		<slices></slices>
		<sliceSourceBounds  bottomLeftOrigin="true" height="259.8" width="663.5" x="81.6" y="218.9"></sliceSourceBounds>
	</sfw>
</metadata>
<path class="st0" d="M132.7,148.8c0,2.2,4.7,9,6.3,9c2,0,6.8-4.5,9.9-4.5c8.6,0,11.2,20.5,10.8,37.6c-0.2,9.6-5.4,21.5-5.4,23.3
	c0,3,5.1,5.8,7.2,7.2c8.4-10.2,12.5-33.9,12.5-45.7c0-18-6.4-41.1-12.6-52.8C156.1,124.1,132.7,145.8,132.7,148.8z M94.6,139.7
	c13.8,2.5,26.6,29.7,30,41.4c2.7-3.8,10.8-16.4,10.8-19.7c-9.4-16.6-28.9-30.6-37.5-31.3L94.6,139.7z M94.2,127.3
	c-2.5-2.3-3.1-4.1-5.4-4.1c-31.2,22.5-17,81.5-10.7,99.1l20.6-9.9C83.9,186.1,81,161.8,94.2,127.3z M331.3,178.4
	c0,2.3,0.4,4,0.9,6.3c13.6-6.5,32,0.7,37.6,7.2c3.4,0,6.3-12.4,6.3-16.1C376.1,168,336.1,167.4,331.3,178.4z M263.1,170
	c1.9-1.3,3.1-3.6,4.7-5.2c-6.9-4-14.4-19.7-16.5-28.5c-0.6-2.4-1.3-15.2-1.4-15.5c-7.3,3.7-12.9,8.9-16,10.7
	c-4.6,3.1,6.1,19.4,8.5,22.9C244.8,158.1,260.3,170.8,263.1,170z M336.8,212.4c-20.5-26.9-13.3-45.8-6.1-79
	c-40.5,28.3-18.8,73.9-10.8,88.2L336.8,212.4z M395.2,173.2c0-27.7-17.2-50.3-44.8-49.6c-11.6,0-17.6,10.7-18.8,19.7
	c4.3-3.2,6.6-4.5,15.2-4.5c43.4,0,36.6,50.3,25.3,78.9l7.9,3.9C386.4,208,395.2,192.7,395.2,173.2z M534.1,126.3l-8.9-3.9
	c-6.8,20.3-10,38.7-10,61.3c0,11.9,1,26.4,3.1,39.1l19.3-10.4c-0.9-3.6-4-20.8-5.2-26.2C527.3,163,531.1,147,534.1,126.3z
	 M212.3,127.3l-9.6-4.6c-7.7,29.6-16.3,65.2-4,99c3.8-1.9,9.6-5.5,17.3-7.5C209.1,187.6,205.3,161.7,212.3,127.3z M293.8,125.1
	c2.5-0.6,9.8-2.6,15.6-2.5c-27.7,32.7-33.7,56.5-41.4,91.8c-14.1,4.9-17.3,5.5-22.1,7.4c0.3-1.3,0.5-3.6,2-8.8
	C252.9,196.5,274.5,152.4,293.8,125.1z M438.1,209.1c-0.9-0.1-17.4,6.1-18.2,5.9c6.8,3.4,20,6.2,31.6,6.2
	c18.8,0,43.1-15.3,42.9-35.8c-0.3-32.9-36.9-30.7-51.3-9.4c19.1-11.4,30.3-0.2,30.7,12.6C474,200.9,453.1,212.7,438.1,209.1
	 M479,158.4c4.4-1.4,6.7-1.6,9.3-4.5c2.7-3,4.9-6.5,4.5-10.7c-3.3-34-63.8-22.7-79.7-9.5c-2.1,6.5-4.9,13.6-8.4,21.1
	c12-13.2,66-32.9,74.1-13.8c3.5,8.3-7.7,13.8-15.1,17.9C471.8,157.4,480.8,158.9,479,158.4z M434.1,205.3c2-8.4,1.3-47.2,4.5-62
	c0,1.8-18.4,10.9-18.1,12.6c2.1,12.7,4.6,39.5,7,50.7C427.9,208.5,430.4,206.3,434.1,205.3"/>
<path class="st1" d="M82.8,248.9H86v11.9c0,1.9-0.2,3.4-0.6,4.3c-0.4,0.9-1,1.7-1.7,2.2c-0.8,0.5-1.7,0.8-2.8,0.8
	c-1.5,0-2.7-0.5-3.5-1.5c-0.8-1-1.3-2.6-1.3-4.6l2.9-0.4c0,1.1,0.2,1.9,0.4,2.4c0.3,0.6,0.8,1,1.5,1c0.7,0,1.1-0.2,1.4-0.7
	c0.3-0.5,0.5-1.5,0.5-3.1V248.9z M113.7,267.7h-3.4l-1.4-4.3h-6.2l-1.3,4.3h-3.3l6-18.9h3.3L113.7,267.7z M108,260.3l-2.1-7l-2.1,7
	H108z M125.8,267.7v-18.9h5c1.9,0,3.1,0.1,3.7,0.3c0.9,0.3,1.7,0.9,2.3,1.9c0.6,1,0.9,2.2,0.9,3.7c0,1.4-0.3,2.5-0.8,3.4
	c-0.5,0.9-1.2,1.6-1.9,1.9c-0.8,0.4-2.1,0.6-4,0.6h-2v7.1H125.8z M128.9,252.1v5.3h1.7c1.2,0,1.9-0.1,2.4-0.2c0.4-0.2,0.8-0.5,1-0.9
	c0.3-0.4,0.4-0.9,0.4-1.6c0-0.6-0.1-1.2-0.4-1.6c-0.3-0.4-0.6-0.7-1-0.9c-0.4-0.1-1.3-0.2-2.6-0.2H128.9z M163.1,267.7h-3.4
	l-1.4-4.3h-6.2l-1.3,4.3h-3.3l6-18.9h3.3L163.1,267.7z M157.3,260.3l-2.1-7l-2.1,7H157.3z M175.3,267.7v-18.9h3l6.3,12.6v-12.6h2.9
	v18.9h-3.1l-6.2-12.3v12.3H175.3z M200.5,261.6l3-0.4c0.3,2.4,1.5,3.6,3.4,3.6c0.9,0,1.7-0.2,2.2-0.7c0.5-0.5,0.8-1.1,0.8-1.8
	c0-0.4-0.1-0.8-0.3-1.1c-0.2-0.3-0.5-0.6-0.9-0.7c-0.4-0.2-1.3-0.5-2.8-1c-1.3-0.4-2.3-0.8-2.9-1.3c-0.6-0.5-1.1-1.1-1.5-1.9
	c-0.4-0.8-0.5-1.6-0.5-2.5c0-1,0.2-2,0.7-2.8c0.5-0.8,1.1-1.4,1.9-1.9c0.8-0.4,1.8-0.6,3.1-0.6c1.8,0,3.2,0.5,4.3,1.5
	c1,1,1.6,2.4,1.6,4.2l-3.1,0.2c-0.1-1-0.4-1.7-0.9-2.1c-0.5-0.4-1.1-0.6-1.9-0.6c-0.8,0-1.5,0.2-1.9,0.5c-0.5,0.4-0.7,0.8-0.7,1.3
	c0,0.5,0.2,0.9,0.6,1.3c0.4,0.4,1.4,0.7,2.8,1.2c1.6,0.5,2.7,0.9,3.4,1.4c0.7,0.5,1.2,1.2,1.6,1.9c0.4,0.8,0.6,1.8,0.6,2.9
	c0,1.6-0.5,3-1.5,4.1c-1,1.1-2.6,1.7-4.7,1.7C203.1,268.1,201,265.9,200.5,261.6z M226.3,267.7v-18.9h3.1v8.4l6.3-8.4h4.2l-5.8,7.3
	l6.1,11.5h-4l-4.3-8.9l-2.5,3.2v5.7H226.3z M255.8,267.7v-15.7h-4.6v-3.2h12.3v3.2h-4.6v15.7H255.8z M294,267.7v-18.9h3.1v8.4
	l6.3-8.4h4.2l-5.8,7.3l6.1,11.5h-4l-4.3-8.9l-2.5,3.2v5.7H294z M319.5,258.4c0-2.3,0.3-4.1,1-5.6c0.7-1.5,1.5-2.5,2.6-3.2
	c1.1-0.7,2.4-1.1,3.9-1.1c2.2,0,4,0.8,5.4,2.5c1.4,1.7,2.1,4.1,2.1,7.2c0,3.2-0.7,5.6-2.2,7.4c-1.3,1.6-3.1,2.4-5.3,2.4
	c-2.2,0-4-0.8-5.3-2.3C320.2,264,319.5,261.5,319.5,258.4z M322.7,258.3c0,2.2,0.4,3.8,1.2,4.9c0.8,1.1,1.8,1.6,3.1,1.6
	c1.2,0,2.2-0.5,3-1.6c0.8-1.1,1.2-2.7,1.2-5c0-2.2-0.4-3.8-1.2-4.9c-0.8-1-1.8-1.6-3.1-1.6c-1.3,0-2.3,0.5-3.1,1.6
	C323.1,254.4,322.7,256.1,322.7,258.3z M323.4,246.9v-3.1h2.5v3.1H323.4z M328,246.9v-3.1h2.5v3.1H328z M347.4,267.7v-18.9h3.1v8.4
	l6.3-8.4h4.2l-5.8,7.3l6.1,11.5h-4l-4.3-8.9l-2.5,3.2v5.7H347.4z M405.2,265.4l-1.8,2.8c-0.9-0.5-1.7-1.2-2.5-2.2
	c-0.6,0.7-1.3,1.2-2,1.5c-0.7,0.3-1.5,0.5-2.5,0.5c-1.9,0-3.2-0.6-4.1-1.7c-0.9-1.1-1.3-2.4-1.3-3.8c0-2.4,1.2-4.4,3.5-5.8
	c-1.1-1.5-1.6-2.9-1.6-4.1c0-1.2,0.4-2.2,1.2-3c0.8-0.8,1.8-1.1,3.1-1.1c1.3,0,2.3,0.4,3.1,1.2c0.8,0.8,1.2,1.8,1.2,3.1
	c0,0.8-0.2,1.6-0.6,2.2c-0.4,0.7-1.1,1.4-2.2,2.3l2.1,3.5c0.2-0.5,0.5-1.2,0.7-2.1l2.7,0.7c-0.4,1.8-0.9,3.1-1.3,3.9
	c0.3,0.4,0.8,0.8,1.3,1.2C404.6,265,404.9,265.3,405.2,265.4z M397.1,255.2l0.8-0.7c0.6-0.6,0.9-1.1,0.9-1.6c0-0.5-0.1-0.9-0.4-1.2
	c-0.3-0.3-0.7-0.5-1.1-0.5c-0.4,0-0.8,0.1-1.1,0.4c-0.3,0.3-0.4,0.6-0.4,1c0,0.5,0.2,1,0.7,1.6L397.1,255.2z M396,259.1
	c-0.7,0.4-1.2,0.9-1.5,1.5c-0.3,0.6-0.5,1.2-0.5,1.8c0,0.8,0.2,1.4,0.7,1.9c0.4,0.5,1,0.7,1.7,0.7c0.9,0,1.8-0.5,2.7-1.4L396,259.1z
	 M440.8,261.6l3-0.4c0.3,2.4,1.5,3.6,3.4,3.6c0.9,0,1.7-0.2,2.2-0.7c0.5-0.5,0.8-1.1,0.8-1.8c0-0.4-0.1-0.8-0.3-1.1
	c-0.2-0.3-0.5-0.6-0.9-0.7c-0.4-0.2-1.3-0.5-2.8-1c-1.3-0.4-2.3-0.8-2.9-1.3c-0.6-0.5-1.1-1.1-1.5-1.9c-0.4-0.8-0.5-1.6-0.5-2.5
	c0-1,0.2-2,0.7-2.8c0.5-0.8,1.1-1.4,1.9-1.9c0.8-0.4,1.8-0.6,3.1-0.6c1.8,0,3.2,0.5,4.3,1.5c1,1,1.6,2.4,1.6,4.2l-3.1,0.2
	c-0.1-1-0.4-1.7-0.9-2.1c-0.5-0.4-1.1-0.6-1.9-0.6c-0.8,0-1.5,0.2-1.9,0.5c-0.5,0.4-0.7,0.8-0.7,1.3c0,0.5,0.2,0.9,0.6,1.3
	c0.4,0.4,1.4,0.7,2.8,1.2c1.6,0.5,2.7,0.9,3.4,1.4c0.7,0.5,1.2,1.2,1.6,1.9c0.4,0.8,0.6,1.8,0.6,2.9c0,1.6-0.5,3-1.5,4.1
	c-1,1.1-2.6,1.7-4.7,1.7C443.4,268.1,441.3,265.9,440.8,261.6z M466.5,248.9h3.1v10.2c0,1.6,0,2.6,0.1,3.1c0.1,0.8,0.5,1.5,1,1.9
	c0.5,0.5,1.2,0.7,2,0.7c0.7,0,1.3-0.2,1.8-0.5c0.5-0.3,0.8-0.8,0.9-1.3c0.2-0.6,0.2-1.8,0.2-3.7v-10.4h3.1v9.9
	c0,2.5-0.1,4.4-0.4,5.5c-0.3,1.1-0.9,2-1.8,2.7c-0.9,0.7-2.2,1-3.8,1c-1.6,0-2.9-0.3-3.8-0.9c-0.9-0.6-1.6-1.4-2-2.4
	c-0.4-1.1-0.6-3-0.6-5.8V248.9z M491.8,261.6l3-0.4c0.3,2.4,1.5,3.6,3.4,3.6c0.9,0,1.7-0.2,2.2-0.7c0.5-0.5,0.8-1.1,0.8-1.8
	c0-0.4-0.1-0.8-0.3-1.1c-0.2-0.3-0.5-0.6-0.9-0.7c-0.4-0.2-1.3-0.5-2.8-1c-1.3-0.4-2.3-0.8-2.9-1.3c-0.6-0.5-1.1-1.1-1.5-1.9
	c-0.4-0.8-0.5-1.6-0.5-2.5c0-1,0.2-2,0.7-2.8c0.5-0.8,1.1-1.4,1.9-1.9c0.8-0.4,1.8-0.6,3.1-0.6c1.8,0,3.2,0.5,4.3,1.5
	c1,1,1.6,2.4,1.6,4.2l-3.1,0.2c-0.1-1-0.4-1.7-0.9-2.1c-0.5-0.4-1.1-0.6-1.9-0.6c-0.8,0-1.5,0.2-1.9,0.5c-0.5,0.4-0.7,0.8-0.7,1.3
	c0,0.5,0.2,0.9,0.6,1.3c0.4,0.4,1.4,0.7,2.8,1.2c1.6,0.5,2.7,0.9,3.4,1.4c0.7,0.5,1.2,1.2,1.6,1.9c0.4,0.8,0.6,1.8,0.6,2.9
	c0,1.6-0.5,3-1.5,4.1c-1,1.1-2.6,1.7-4.7,1.7C494.3,268.1,492.2,265.9,491.8,261.6z M517.5,267.7v-18.9h3.1v7.4h6.1v-7.4h3.1v18.9
	h-3.1v-8.2h-6.1v8.2H517.5z M543.5,267.7v-18.9h3.1v18.9H543.5z"/>
<path class="st0" d="M559.4,18.1c0,3.1,1.6,4.2,1.8,6.6c-3.1,0.3-6,2.7-6,6v10.2C534,45.4,512,69.3,512.1,95.4
	c6.7,5.6,16.5,9.9,24.8,13.2c0.5-0.4,1.5-3.2,1.5-4.1c0-1.7-2.4-3.1-2.4-7.2c0-10.7,4.9-22.2,18-22.2c9.2,0,12.5,3.6,18,9.6
	c4.9-5.9,7.5-9.6,16.2-9.6c13.6,0,18.7,9.5,19.8,21c0.7,5.2-4,8-4,8.1c-1.1,1.7-0.2,3,0.5,4.5c3.4-0.5,26.4-7.6,26.4-10.8
	c0-40.2-33.5-54.6-47.6-56.9c-0.3-1.8,0.4-5.6-0.4-10.8c-0.7-2.7-2.3-5.2-5.4-5.5c0.7-2.7,1.8-2.5,1.8-6.7c0-5.6-4.4-9.5-10.1-9.5
	C563.1,8.9,559.4,12.3,559.4,18.1"/>
<path class="st2" d="M647,152.4c-8.7-7-19.8-6.1-26.6-1.9c-11.2,7-13.5,19.2-8.2,29.7l15.9-8.4l-9.6,2.6l-0.5-2.2l9.4-2.1l-9.7-0.3
	l0.1-2.5l9.7,0.8l-9.1-3.6l1.2-2.4l8.8,4.4l-6.9-6.8l2-1.7l6.5,7.3l-3.8-8.8l2.3-0.9l3.2,9.1l-0.1-9.4l2.4,0l-0.3,9.4l3.5-8.8
	l2.1,0.9l-3.7,8.9L647,152.4z"/>
<path class="st2" d="M646.9,114.7l-3.7-2.7l-4.6,1.3l-3.5,25.7l0.6-26l-3.8-1.9l-4.2,2l1.5,26.1l-4.7-25.8l-4.5-1.1l-3,2.6l5.7,25.2
	l-9.3-24.2l-4.8-0.2l-2.5,3.2l11.4,24.2l-14.3-22.7l-4.3,0.5l-1.8,3.5l15.5,21.5l-18.5-19.1l-4.2,1.2l-1,3.8l19.3,18.1l-21.7-15.3
	l-4.1,2.3l-0.4,4.1c0,3.5,20,10.6,22.2,14l-24.2-10.4l-2.6,1.9l1.1,5.9l23.9,7.8l-26.3-5.9l-2.8,3.4l1.2,5l26.7,3.7l-27.2-1.2
	l-1.9,3.9l2.1,5l26.7-1.7l-26.2,4.7l-1.4,4.8l2.9,3l26-6.2l-24.9,9.2l0,5.2l3.5,2.7l28.3-14.2c-6.7-12.1-2.7-27.2,9.9-34.4
	c9.1-5.2,21.6-4.6,29.8,2.4c2.1-4.5,16.4-23.2,18-25.8l-2.2-3.8l-4.9-0.6c-2.7,3.6-9.4,19-13.4,22.5l10.8-23.8l-2.9-3.3l-4.8,0.4
	c-2.3,7.1-6.5,17.7-9.3,24.6L646.9,114.7z"/>
<path class="st0" d="M579.5,111.4c4.9-3,13.2-4.2,20.2-5.9c-4.8,2.5-9.9,4.4-14.2,8.3C582.9,114.3,580.9,113.5,579.5,111.4"/>
<path class="st0" d="M566.2,111.4c-4.9-3-13.2-4.2-20.2-5.9c4.8,2.5,9.9,4.4,14.2,8.3C562.8,114.3,564.8,113.5,566.2,111.4"/>
<path class="st2" d="M632.3,167c1.4,0,2.6,1.1,2.6,2.5c0,1.4-1.2,2.5-2.6,2.5c-1.4,0-2.6-1.1-2.6-2.5
	C629.7,168.2,630.9,167,632.3,167"/>
<path class="st0" d="M66.7,91.9v16.6H54.1L54,91.8L66.7,91.9z M54.1,77.4h12.6v12.2H54.1V77.4z M54.1,61h12.6v14.1H54.1V61z
	 M18.4,45.8h9v23h-9V45.8z M54,117.5v-6.8H92c0.6-0.1,1.1-0.4,1.1-1.1c0-0.8-6.7-5.8-7.2-5.8c-0.4,0-4.4,4.7-5,4.7h-9.5V91.8h16.2
	c0.5,0,1.2-0.4,1.2-1c0-1.1-2.1-2.3-2.9-2.8c-0.5-0.3-3.2-2.4-3.4-2.4c-0.4,0-3.7,4-4.2,4h-6.9V77.4H87c0.5,0,1.3-0.5,1.3-1
	c0-1.3-5.2-4.6-6.3-5.3c-1,0.6-3.5,4-4.5,4h-5.9V61h18.3c0.6,0,1.3-0.4,1.3-1.1c0-1.2-5.9-5.2-7.1-6l-4.8,4.8l0.1,0.1l-10.5,0
	l9.7-17.5H80c0.7,0,2.2-0.4,2.2-1v-0.1c0-1.3-2.4-2-3.4-2.4c-0.9-0.3-3.6-1.5-4.3-1.6c-0.3,1.4-1.3,4.4-1.8,5.7
	c-0.7,1.6-1.3,4-1.9,5.8c-0.5,1.8-1.3,3.8-1.9,5.6c-0.3,0.9-0.6,1.9-0.9,2.8c-0.2,0.5-0.7,2.7-1.1,2.7h-11c-0.3,0-1.6-1.2-2.1-1.5
	c0.2-0.6,3.1-6.4,3.6-7.5c1.2-2.4,2.2-5.4,3.4-7.8c1,0,3.6,0.1,3.6-0.7c0-1.3-2.6-2.5-3.6-3.1c-0.9-0.5-3.5-2.3-4.2-2.5
	c-0.7,2.9-1.6,5.8-2.5,8.6c-0.9,2.8-1.8,5.7-2.8,8.3c-2.3,5.6-4.3,10.3-7,15.4l-3.7-3.3c-0.8,0.5-3.7,4-4.2,4h-4.2v-23h13.6
	c0.5,0,1.2-0.4,1.2-0.9v-0.2c0-1.1-2.5-2.6-3.3-3.2c-1-0.8-2.8-2.2-3.8-2.8c-0.3,0.5-4.7,4.8-5,4.8H5.8v2.2h7.9v23H5.4v2.3h20.8
	c-0.7,1.4-1.4,3.1-2.1,4.6c-0.7,1.4-1.6,3.1-2.5,4.3c-1.8,2.6-3.6,5.6-5.7,8c-2.1,2.5-4,5.1-6.3,7.4c-1.1,1.1-2.1,2.4-3.3,3.5
	c-1,1-2.8,2.1-2.8,4.1h0.4c1.5,0,11.4-8.9,12.8-10.3c1.7-1.7,4.1-4.1,5.5-6.1c0.4-0.6,5-6.6,5-6.6c0,7.8,0,15.7,0,23.5
	c0,4.3,1,8.5-2.7,9.1c-1.8,0.3-11.1-0.7-11.1,0.7c0,0.8,2.4,1.1,3.2,1.3c1.1,0.3,2.5,0.6,3.7,0.8c4.2,0.7,1.1,4.5,4.4,4.5h0.5
	c3.6,0,6.9-4.6,6.9-8.5V71.1h10.3C42,73,38.1,77.3,38.1,79h0.5c1,0,5.1-4.8,5.8-5.7c0.8-1.1,1.6-2.1,2.5-3.2
	c0.8-1.1,1.6-2.5,2.4-3.4c0,9,0,18.1,0,27.1c0,4.5,0,9,0,13.6c0,2.3,0,4.5,0,6.8c0,1.7-0.6,5.7,1.1,5.7
	C51.4,119.8,53.6,118.1,54,117.5"/>
</svg>
