<?xml version="1.0" encoding="utf-8"?>
<!-- Generator: Adobe Illustrator 27.9.0, SVG Export Plug-In . SVG Version: 6.00 Build 0)  -->
<!DOCTYPE svg PUBLIC "-//W3C//DTD SVG 1.1//EN" "http://www.w3.org/Graphics/SVG/1.1/DTD/svg11.dtd" [
	<!ENTITY ns_extend "http://ns.adobe.com/Extensibility/1.0/">
	<!ENTITY ns_ai "http://ns.adobe.com/AdobeIllustrator/10.0/">
	<!ENTITY ns_graphs "http://ns.adobe.com/Graphs/1.0/">
	<!ENTITY ns_vars "http://ns.adobe.com/Variables/1.0/">
	<!ENTITY ns_imrep "http://ns.adobe.com/ImageReplacement/1.0/">
	<!ENTITY ns_sfw "http://ns.adobe.com/SaveForWeb/1.0/">
	<!ENTITY ns_custom "http://ns.adobe.com/GenericCustomNamespace/1.0/">
	<!ENTITY ns_adobe_xpath "http://ns.adobe.com/XPath/1.0/">
]>
<svg version="1.1" id="Layer_1" xmlns:x="&ns_extend;" xmlns:i="&ns_ai;" xmlns:graph="&ns_graphs;"
	 xmlns="http://www.w3.org/2000/svg" xmlns:xlink="http://www.w3.org/1999/xlink" x="0px" y="0px" viewBox="0 0 106.2 100"
	 style="enable-background:new 0 0 106.2 100;" xml:space="preserve">
<style type="text/css">
	.st0{fill-rule:evenodd;clip-rule:evenodd;fill:#231F20;}
</style>
<metadata>
	<sfw  xmlns="&ns_sfw;">
		<slices></slices>
		<sliceSourceBounds  bottomLeftOrigin="true" height="85" width="94.9" x="650.2" y="291"></sliceSourceBounds>
	</sfw>
</metadata>
<path class="st0" d="M82.2,45.7c-8.7-7-19.8-6.1-26.6-1.9c-11.2,7-13.5,19.2-8.2,29.7l15.9-8.4l-9.6,2.6l-0.5-2.2l9.4-2.1L53,63.3
	l0.1-2.5l9.7,0.8L53.7,58l1.2-2.4l8.8,4.4l-6.9-6.8l2-1.7l6.5,7.3l-3.8-8.8l2.3-0.9l3.2,9.1l-0.1-9.4l2.4,0l-0.3,9.4l3.5-8.8
	l2.1,0.9l-3.7,8.9L82.2,45.7z"/>
<path class="st0" d="M82.2,8l-3.7-2.7l-4.6,1.3l-3.5,25.7l0.6-26l-3.8-1.9l-4.2,2l1.5,26.1L59.9,6.7l-4.5-1.1l-3,2.6l5.7,25.2
	L48.8,9.2L44,9l-2.5,3.2l11.4,24.2L38.6,13.7l-4.3,0.5l-1.8,3.5l15.5,21.5L29.4,20.1l-4.2,1.2l-1,3.8l19.3,18.1L21.7,28l-4.1,2.3
	l-0.4,4.1c0,3.5,20,10.6,22.2,14L15.3,38l-2.6,1.9l1.1,5.9l23.9,7.8l-26.3-5.9l-2.8,3.4l1.2,5l26.7,3.7L9.3,58.7l-1.9,3.9l2.1,5
	l26.7-1.7L10,70.6l-1.4,4.8l2.9,3l26-6.2l-24.9,9.2l0,5.2l3.5,2.7l28.3-14.2c-6.7-12.1-2.7-27.2,9.9-34.4c9.1-5.2,21.6-4.6,29.8,2.4
	c2.1-4.5,16.4-23.2,18-25.8l-2.2-3.8L95.1,13c-2.7,3.6-9.4,19-13.4,22.5l10.8-23.8l-2.9-3.3l-4.8,0.4c-2.3,7.1-6.5,17.7-9.3,24.6
	L82.2,8z"/>
<path class="st0" d="M67.6,60.3c1.4,0,2.6,1.1,2.6,2.5c0,1.4-1.2,2.5-2.6,2.5c-1.4,0-2.6-1.1-2.6-2.5C65,61.5,66.1,60.3,67.6,60.3"
	/>
</svg>
