<?xml version="1.0" encoding="utf-8"?>
<!-- Generator: Adobe Illustrator 27.9.0, SVG Export Plug-In . SVG Version: 6.00 Build 0)  -->
<!DOCTYPE svg PUBLIC "-//W3C//DTD SVG 1.1//EN" "http://www.w3.org/Graphics/SVG/1.1/DTD/svg11.dtd" [
	<!ENTITY ns_extend "http://ns.adobe.com/Extensibility/1.0/">
	<!ENTITY ns_ai "http://ns.adobe.com/AdobeIllustrator/10.0/">
	<!ENTITY ns_graphs "http://ns.adobe.com/Graphs/1.0/">
	<!ENTITY ns_vars "http://ns.adobe.com/Variables/1.0/">
	<!ENTITY ns_imrep "http://ns.adobe.com/ImageReplacement/1.0/">
	<!ENTITY ns_sfw "http://ns.adobe.com/SaveForWeb/1.0/">
	<!ENTITY ns_custom "http://ns.adobe.com/GenericCustomNamespace/1.0/">
	<!ENTITY ns_adobe_xpath "http://ns.adobe.com/XPath/1.0/">
]>
<svg version="1.1" id="Layer_1" xmlns:x="&ns_extend;" xmlns:i="&ns_ai;" xmlns:graph="&ns_graphs;"
	 xmlns="http://www.w3.org/2000/svg" xmlns:xlink="http://www.w3.org/1999/xlink" x="0px" y="0px" viewBox="0 0 104.9 101.1"
	 style="enable-background:new 0 0 104.9 101.1;" xml:space="preserve">
<style type="text/css">
	.st0{fill-rule:evenodd;clip-rule:evenodd;fill:#231F20;}
</style>
<metadata>
	<sfw  xmlns="&ns_sfw;">
		<slices></slices>
		<sliceSourceBounds  bottomLeftOrigin="true" height="84.2" width="89.6" x="100.5" y="386.9"></sliceSourceBounds>
	</sfw>
</metadata>
<path class="st0" d="M69.8,63.7v16.6H57.2L57,63.6L69.8,63.7z M57.2,49.2h12.6v12.2H57.2V49.2z M57.2,32.8h12.6v14.1H57.2V32.8z
	 M21.4,17.6h9v23h-9V17.6z M57,89.3v-6.8h38.1c0.6-0.1,1.1-0.4,1.1-1.1c0-0.8-6.7-5.8-7.2-5.8c-0.4,0-4.4,4.7-5,4.7h-9.5V63.6h16.2
	c0.5,0,1.2-0.4,1.2-1c0-1.1-2.1-2.3-2.9-2.8c-0.5-0.3-3.2-2.4-3.4-2.4c-0.4,0-3.7,4-4.2,4h-6.9V49.2H90c0.5,0,1.3-0.5,1.3-1
	c0-1.3-5.2-4.6-6.3-5.3c-1,0.6-3.5,4-4.5,4h-5.9V32.8h18.3c0.6,0,1.3-0.4,1.3-1.1c0-1.2-5.9-5.2-7.1-6l-4.8,4.8l0.1,0.1l-10.5,0
	l9.7-17.5h1.5c0.7,0,2.2-0.4,2.2-1V12c0-1.3-2.4-2-3.4-2.4C81,9.3,78.3,8.1,77.5,8c-0.3,1.4-1.3,4.4-1.8,5.7c-0.7,1.6-1.3,4-1.9,5.8
	c-0.5,1.8-1.3,3.8-1.9,5.6C71.7,26,71.3,27,71,27.9c-0.2,0.5-0.7,2.7-1.1,2.7h-11c-0.3,0-1.6-1.2-2.1-1.5c0.2-0.6,3.1-6.4,3.6-7.5
	c1.2-2.4,2.2-5.4,3.4-7.8c1,0,3.6,0.1,3.6-0.7c0-1.3-2.6-2.5-3.6-3.1c-0.9-0.5-3.5-2.3-4.2-2.5c-0.7,2.9-1.6,5.8-2.5,8.6
	c-0.9,2.8-1.8,5.7-2.8,8.3c-2.3,5.6-4.3,10.3-7,15.4l-3.7-3.3c-0.8,0.5-3.7,4-4.2,4h-4.2v-23h13.6c0.5,0,1.2-0.4,1.2-0.9v-0.2
	c0-1.1-2.5-2.6-3.3-3.2c-1-0.8-2.8-2.2-3.8-2.8c-0.3,0.5-4.7,4.8-5,4.8H8.8v2.2h7.9v23H8.4v2.3h20.8c-0.7,1.4-1.4,3.1-2.1,4.6
	c-0.7,1.4-1.6,3.1-2.5,4.3c-1.8,2.6-3.6,5.6-5.7,8c-2.1,2.5-4,5.1-6.3,7.4c-1.1,1.1-2.1,2.4-3.3,3.5c-1,1-2.8,2.1-2.8,4.1H7
	c1.5,0,11.4-8.9,12.8-10.3c1.7-1.7,4.1-4.1,5.5-6.1c0.4-0.6,5-6.6,5-6.6c0,7.8,0,15.7,0,23.5c0,4.3,1,8.5-2.7,9.1
	c-1.8,0.3-11.1-0.7-11.1,0.7c0,0.8,2.4,1.1,3.2,1.3c1.1,0.3,2.5,0.6,3.7,0.8c4.2,0.7,1.1,4.5,4.4,4.5h0.5c3.6,0,6.9-4.6,6.9-8.5
	V42.9h10.3c-0.4,1.9-4.4,6.3-4.4,7.9h0.5c1,0,5.1-4.8,5.8-5.7c0.8-1.1,1.6-2.1,2.5-3.2c0.8-1.1,1.6-2.5,2.4-3.4c0,9,0,18.1,0,27.1
	c0,4.5,0,9,0,13.6c0,2.3,0,4.5,0,6.8c0,1.7-0.6,5.7,1.1,5.7C54.4,91.6,56.6,89.9,57,89.3"/>
</svg>
