<?xml version="1.0" encoding="utf-8"?>
<!-- Generator: Adobe Illustrator 27.9.0, SVG Export Plug-In . SVG Version: 6.00 Build 0)  -->
<!DOCTYPE svg PUBLIC "-//W3C//DTD SVG 1.1//EN" "http://www.w3.org/Graphics/SVG/1.1/DTD/svg11.dtd" [
	<!ENTITY ns_extend "http://ns.adobe.com/Extensibility/1.0/">
	<!ENTITY ns_ai "http://ns.adobe.com/AdobeIllustrator/10.0/">
	<!ENTITY ns_graphs "http://ns.adobe.com/Graphs/1.0/">
	<!ENTITY ns_vars "http://ns.adobe.com/Variables/1.0/">
	<!ENTITY ns_imrep "http://ns.adobe.com/ImageReplacement/1.0/">
	<!ENTITY ns_sfw "http://ns.adobe.com/SaveForWeb/1.0/">
	<!ENTITY ns_custom "http://ns.adobe.com/GenericCustomNamespace/1.0/">
	<!ENTITY ns_adobe_xpath "http://ns.adobe.com/XPath/1.0/">
]>
<svg version="1.1" id="Layer_1" xmlns:x="&ns_extend;" xmlns:i="&ns_ai;" xmlns:graph="&ns_graphs;"
	 xmlns="http://www.w3.org/2000/svg" xmlns:xlink="http://www.w3.org/1999/xlink" x="0px" y="0px" viewBox="0 0 496.3 176.3"
	 style="enable-background:new 0 0 496.3 176.3;" xml:space="preserve">
<style type="text/css">
	.st0{fill-rule:evenodd;clip-rule:evenodd;fill:#231F20;}
	.st1{fill:#ED2029;}
</style>
<metadata>
	<sfw  xmlns="&ns_sfw;">
		<slices></slices>
		<sliceSourceBounds  bottomLeftOrigin="true" height="147.5" width="477.3" x="147.3" y="218.9"></sliceSourceBounds>
	</sfw>
</metadata>
<path class="st0" d="M73.1,42.4c0,2.2,4.7,9,6.3,9c2,0,6.8-4.5,9.9-4.5c8.6,0,11.2,20.5,10.8,37.6c-0.2,9.6-5.4,21.5-5.4,23.3
	c0,3,5.1,5.8,7.2,7.2c8.4-10.2,12.5-33.9,12.5-45.7c0-18-6.4-41.1-12.6-52.8C96.5,17.7,73.1,39.4,73.1,42.4z M35,33.3
	C48.8,35.8,61.6,63,65,74.7c2.7-3.8,10.8-16.4,10.8-19.7c-9.4-16.6-28.9-30.6-37.5-31.3L35,33.3z M34.6,20.9
	c-2.5-2.3-3.1-4.1-5.4-4.1c-31.2,22.5-17,81.5-10.7,99.1L39,106C24.3,79.7,21.4,55.4,34.6,20.9z M271.7,72c0,2.3,0.4,4,0.9,6.3
	c13.6-6.5,32,0.7,37.6,7.2c3.4,0,6.3-12.4,6.3-16.1C316.5,61.6,276.5,61,271.7,72z M203.5,63.6c1.9-1.3,3.1-3.6,4.7-5.2
	c-6.9-4-14.4-19.7-16.5-28.5c-0.6-2.4-1.3-15.2-1.4-15.5c-7.3,3.7-12.9,8.9-16,10.7c-4.6,3.1,6.1,19.4,8.5,22.9
	C185.2,51.7,200.7,64.5,203.5,63.6z M277.2,106c-20.5-26.9-13.3-45.8-6.1-79c-40.5,28.3-18.8,73.9-10.8,88.2L277.2,106z M335.6,66.8
	c0-27.7-17.2-50.3-44.8-49.6c-11.6,0-17.6,10.7-18.8,19.7c4.3-3.2,6.6-4.5,15.2-4.5c43.4,0,36.6,50.3,25.3,78.9l7.9,3.9
	C326.8,101.6,335.6,86.3,335.6,66.8z M474.5,19.9l-8.9-3.9c-6.8,20.3-10,38.7-10,61.3c0,11.9,1,26.4,3.1,39.1l19.3-10.4
	c-0.9-3.6-4-20.8-5.2-26.2C467.7,56.6,471.5,40.6,474.5,19.9z M152.7,20.9l-9.6-4.6c-7.7,29.6-16.3,65.2-4,99
	c3.8-1.9,9.6-5.5,17.3-7.5C149.5,81.2,145.7,55.3,152.7,20.9z M234.2,18.8c2.5-0.6,9.8-2.6,15.6-2.5c-27.7,32.7-33.7,56.5-41.4,91.8
	c-14.1,4.9-17.3,5.5-22.1,7.4c0.3-1.3,0.5-3.6,2-8.8C193.3,90.1,214.9,46,234.2,18.8z M378.5,102.7c-0.9-0.1-17.4,6.1-18.2,5.9
	c6.8,3.4,20,6.2,31.6,6.2c18.8,0,43.1-15.3,42.9-35.8c-0.3-32.9-36.9-30.7-51.3-9.4c19.1-11.4,30.3-0.2,30.7,12.6
	C414.4,94.5,393.5,106.3,378.5,102.7 M419.4,52c4.4-1.4,6.7-1.6,9.3-4.5c2.7-3,4.9-6.5,4.5-10.7c-3.3-34-63.8-22.7-79.7-9.5
	c-2.1,6.5-4.9,13.6-8.4,21.1c12-13.2,66-32.9,74.1-13.8c3.5,8.3-7.7,13.8-15.1,17.9C412.2,51,421.3,52.5,419.4,52z M374.5,98.9
	c2-8.4,1.3-47.2,4.5-62c0,1.8-18.4,10.9-18.1,12.6c2.1,12.7,4.6,39.5,7,50.7C368.3,102.2,370.8,99.9,374.5,98.9"/>
<path class="st1" d="M23.2,142.5h3.1v11.9c0,1.9-0.2,3.4-0.6,4.3c-0.4,0.9-1,1.7-1.7,2.2c-0.8,0.5-1.7,0.8-2.8,0.8
	c-1.5,0-2.7-0.5-3.5-1.5c-0.8-1-1.3-2.6-1.3-4.6l2.9-0.4c0,1.1,0.2,1.9,0.4,2.4c0.3,0.6,0.8,1,1.5,1c0.7,0,1.1-0.2,1.4-0.7
	c0.3-0.5,0.5-1.5,0.5-3.1V142.5z M54.1,161.4h-3.4l-1.4-4.3h-6.2l-1.3,4.3h-3.3l6-18.9h3.3L54.1,161.4z M48.4,153.9l-2.1-7l-2.1,7
	H48.4z M66.2,161.4v-18.9h5c1.9,0,3.1,0.1,3.7,0.3c0.9,0.3,1.7,0.9,2.3,1.9c0.6,1,0.9,2.2,0.9,3.7c0,1.4-0.3,2.5-0.8,3.4
	c-0.5,0.9-1.2,1.6-1.9,1.9c-0.8,0.4-2.1,0.6-4,0.6h-2v7.1H66.2z M69.4,145.7v5.3h1.7c1.2,0,1.9-0.1,2.4-0.2c0.4-0.2,0.8-0.5,1-0.9
	c0.3-0.4,0.4-0.9,0.4-1.6c0-0.6-0.1-1.2-0.4-1.6c-0.3-0.4-0.6-0.7-1-0.9c-0.4-0.1-1.3-0.2-2.6-0.2H69.4z M103.5,161.4h-3.4l-1.4-4.3
	h-6.2l-1.3,4.3H88l6-18.9h3.3L103.5,161.4z M97.8,153.9l-2.1-7l-2.1,7H97.8z M115.7,161.4v-18.9h3l6.3,12.6v-12.6h2.9v18.9h-3.1
	l-6.2-12.3v12.3H115.7z M140.9,155.2l3-0.4c0.3,2.4,1.5,3.6,3.4,3.6c0.9,0,1.7-0.2,2.2-0.7c0.5-0.5,0.8-1.1,0.8-1.8
	c0-0.4-0.1-0.8-0.3-1.1c-0.2-0.3-0.5-0.6-0.9-0.7c-0.4-0.2-1.3-0.5-2.8-1c-1.3-0.4-2.3-0.8-2.9-1.3c-0.6-0.5-1.1-1.1-1.5-1.9
	c-0.4-0.8-0.5-1.6-0.5-2.5c0-1,0.2-2,0.7-2.8c0.5-0.8,1.1-1.4,1.9-1.9c0.8-0.4,1.8-0.6,3.1-0.6c1.8,0,3.2,0.5,4.3,1.5
	c1,1,1.6,2.4,1.6,4.2l-3.1,0.2c-0.1-1-0.4-1.7-0.9-2.1c-0.5-0.4-1.1-0.6-1.9-0.6c-0.8,0-1.5,0.2-1.9,0.5c-0.5,0.4-0.7,0.8-0.7,1.3
	c0,0.5,0.2,0.9,0.6,1.3c0.4,0.4,1.4,0.7,2.8,1.2c1.6,0.5,2.7,0.9,3.4,1.4c0.7,0.5,1.2,1.2,1.6,1.9c0.4,0.8,0.6,1.8,0.6,2.9
	c0,1.6-0.5,3-1.5,4.1c-1,1.1-2.6,1.7-4.7,1.7C143.5,161.7,141.4,159.5,140.9,155.2z M166.7,161.4v-18.9h3.1v8.4l6.3-8.4h4.2
	l-5.8,7.3l6.1,11.5h-4l-4.3-8.9l-2.5,3.2v5.7H166.7z M196.2,161.4v-15.7h-4.6v-3.2h12.3v3.2h-4.6v15.7H196.2z M234.5,161.4v-18.9
	h3.1v8.4l6.3-8.4h4.2l-5.8,7.3l6.1,11.5h-4l-4.3-8.9l-2.5,3.2v5.7H234.5z M259.9,152c0-2.3,0.3-4.1,1-5.6c0.7-1.5,1.5-2.5,2.6-3.2
	c1.1-0.7,2.4-1.1,3.9-1.1c2.2,0,4,0.8,5.4,2.5c1.4,1.7,2.1,4.1,2.1,7.2c0,3.2-0.7,5.6-2.2,7.4c-1.3,1.6-3.1,2.4-5.3,2.4
	c-2.2,0-4-0.8-5.3-2.3C260.6,157.6,259.9,155.1,259.9,152z M263.1,151.9c0,2.2,0.4,3.8,1.2,4.9c0.8,1.1,1.8,1.6,3.1,1.6
	c1.2,0,2.2-0.5,3-1.6c0.8-1.1,1.2-2.7,1.2-5c0-2.2-0.4-3.8-1.2-4.9c-0.8-1-1.8-1.6-3.1-1.6c-1.3,0-2.3,0.5-3.1,1.6
	C263.5,148.1,263.1,149.7,263.1,151.9z M263.8,140.5v-3.1h2.5v3.1H263.8z M268.4,140.5v-3.1h2.5v3.1H268.4z M287.8,161.4v-18.9h3.1
	v8.4l6.3-8.4h4.2l-5.8,7.3l6.1,11.5h-4l-4.3-8.9l-2.5,3.2v5.7H287.8z M345.6,159.1l-1.8,2.8c-0.9-0.5-1.7-1.2-2.5-2.2
	c-0.6,0.7-1.3,1.2-2,1.5c-0.7,0.3-1.5,0.5-2.5,0.5c-1.9,0-3.2-0.6-4.1-1.7c-0.9-1.1-1.3-2.4-1.3-3.8c0-2.4,1.2-4.4,3.5-5.8
	c-1.1-1.5-1.6-2.9-1.6-4.1c0-1.2,0.4-2.2,1.2-3c0.8-0.8,1.8-1.1,3.1-1.1c1.3,0,2.3,0.4,3.1,1.2c0.8,0.8,1.2,1.8,1.2,3.1
	c0,0.8-0.2,1.6-0.6,2.2c-0.4,0.7-1.1,1.4-2.2,2.3l2.1,3.5c0.2-0.5,0.5-1.2,0.7-2.1l2.7,0.7c-0.4,1.8-0.9,3.1-1.3,3.9
	c0.3,0.4,0.8,0.8,1.3,1.2C345,158.6,345.3,158.9,345.6,159.1z M337.5,148.8l0.8-0.7c0.6-0.6,0.9-1.1,0.9-1.6c0-0.5-0.1-0.9-0.4-1.2
	c-0.3-0.3-0.7-0.5-1.1-0.5c-0.4,0-0.8,0.1-1.1,0.4c-0.3,0.3-0.4,0.6-0.4,1c0,0.5,0.2,1,0.7,1.6L337.5,148.8z M336.4,152.7
	c-0.7,0.4-1.2,0.9-1.5,1.5c-0.3,0.6-0.5,1.2-0.5,1.8c0,0.8,0.2,1.4,0.7,1.9c0.4,0.5,1,0.7,1.7,0.7c0.9,0,1.8-0.5,2.7-1.4
	L336.4,152.7z M381.2,155.2l3-0.4c0.3,2.4,1.5,3.6,3.4,3.6c0.9,0,1.7-0.2,2.2-0.7c0.5-0.5,0.8-1.1,0.8-1.8c0-0.4-0.1-0.8-0.3-1.1
	c-0.2-0.3-0.5-0.6-0.9-0.7c-0.4-0.2-1.3-0.5-2.8-1c-1.3-0.4-2.3-0.8-2.9-1.3c-0.6-0.5-1.1-1.1-1.5-1.9c-0.4-0.8-0.5-1.6-0.5-2.5
	c0-1,0.2-2,0.7-2.8c0.5-0.8,1.1-1.4,1.9-1.9c0.8-0.4,1.8-0.6,3.1-0.6c1.8,0,3.2,0.5,4.3,1.5c1,1,1.6,2.4,1.6,4.2l-3.1,0.2
	c-0.1-1-0.4-1.7-0.9-2.1c-0.5-0.4-1.1-0.6-1.9-0.6c-0.8,0-1.5,0.2-1.9,0.5c-0.5,0.4-0.7,0.8-0.7,1.3c0,0.5,0.2,0.9,0.6,1.3
	c0.4,0.4,1.4,0.7,2.8,1.2c1.6,0.5,2.7,0.9,3.4,1.4c0.7,0.5,1.2,1.2,1.6,1.9c0.4,0.8,0.6,1.8,0.6,2.9c0,1.6-0.5,3-1.5,4.1
	c-1,1.1-2.6,1.7-4.7,1.7C383.8,161.7,381.7,159.5,381.2,155.2z M406.9,142.5h3.1v10.2c0,1.6,0,2.6,0.1,3.1c0.1,0.8,0.5,1.5,1,1.9
	c0.5,0.5,1.2,0.7,2,0.7c0.7,0,1.3-0.2,1.8-0.5c0.5-0.3,0.8-0.8,0.9-1.3c0.2-0.6,0.2-1.8,0.2-3.7v-10.4h3.1v9.9
	c0,2.5-0.1,4.4-0.4,5.5c-0.3,1.1-0.9,2-1.8,2.7c-0.9,0.7-2.2,1-3.8,1c-1.6,0-2.9-0.3-3.8-0.9c-0.9-0.6-1.6-1.4-2-2.4
	c-0.4-1.1-0.6-3-0.6-5.8V142.5z M432.2,155.2l3-0.4c0.3,2.4,1.5,3.6,3.4,3.6c0.9,0,1.7-0.2,2.2-0.7c0.5-0.5,0.8-1.1,0.8-1.8
	c0-0.4-0.1-0.8-0.3-1.1c-0.2-0.3-0.5-0.6-0.9-0.7c-0.4-0.2-1.3-0.5-2.8-1c-1.3-0.4-2.3-0.8-2.9-1.3c-0.6-0.5-1.1-1.1-1.5-1.9
	c-0.4-0.8-0.5-1.6-0.5-2.5c0-1,0.2-2,0.7-2.8c0.5-0.8,1.1-1.4,1.9-1.9c0.8-0.4,1.8-0.6,3.1-0.6c1.8,0,3.2,0.5,4.3,1.5
	c1,1,1.6,2.4,1.6,4.2l-3.1,0.2c-0.1-1-0.4-1.7-0.9-2.1c-0.5-0.4-1.1-0.6-1.9-0.6c-0.8,0-1.5,0.2-1.9,0.5c-0.5,0.4-0.7,0.8-0.7,1.3
	c0,0.5,0.2,0.9,0.6,1.3c0.4,0.4,1.4,0.7,2.8,1.2c1.6,0.5,2.7,0.9,3.4,1.4c0.7,0.5,1.2,1.2,1.6,1.9c0.4,0.8,0.6,1.8,0.6,2.9
	c0,1.6-0.5,3-1.5,4.1c-1,1.1-2.6,1.7-4.7,1.7C434.8,161.7,432.6,159.5,432.2,155.2z M457.9,161.4v-18.9h3.1v7.4h6.1v-7.4h3.1v18.9
	h-3.1v-8.2H461v8.2H457.9z M483.9,161.4v-18.9h3.1v18.9H483.9z"/>
</svg>
