<svg xmlns="http://www.w3.org/2000/svg" xmlns:xlink="http://www.w3.org/1999/xlink" version="1.1" width="841.8898pt" height="595.2756pt" viewBox="0 0 841.8898 595.2756">
<path transform="matrix(1,0,0,-1,0,595.2756)" d="M210.691 338.2744C210.691 336.1229 215.3744 329.3152 216.9629 329.3152 218.9832 329.3152 223.7995 333.7951 226.8196 333.7951 235.4128 333.7951 237.9912 313.3193 237.57 296.1624 237.3333 286.53 232.1949 274.6148 232.1949 272.8672 232.1949 269.8685 237.3171 267.0698 239.3634 265.6984 247.7744 275.8952 251.905 299.6237 251.905 311.3957 251.905 329.4085 245.4633 352.5024 239.271 364.1995 234.1406 363.0059 210.691 341.2689 210.691 338.2744ZM172.6121 347.3836C186.3825 344.8789 199.1784 317.6617 202.6276 306.019 205.3363 309.8157 213.3791 322.3868 213.3791 325.7303 204.0097 342.2874 184.483 356.3691 175.8348 357.0613ZM172.1633 359.7786C169.6921 362.0789 169.0651 363.8713 166.7134 363.8713 135.4646 341.3511 149.7039 282.367 156.0356 264.8035L176.6151 274.7117C161.9186 301.0209 158.9627 325.2563 172.1633 359.7786ZM409.343 308.7255C409.343 306.4252 409.72 304.6853 410.2393 302.453 423.8323 308.975 442.2725 301.7871 447.8717 295.2867 451.3011 295.2867 454.1426 307.6387 454.1426 311.4147 454.1426 319.0839 414.1106 319.7058 409.343 308.7255ZM341.0762 317.0917C342.9799 318.3803 344.2105 320.6548 345.7672 322.3363 338.9057 326.3406 331.4024 342.0179 329.2951 350.8084 328.7169 353.2232 328.0187 366.0296 327.8514 366.2765 320.5032 362.5398 314.9283 357.378 311.8017 355.5918 307.237 352.4998 317.8786 336.225 320.2594 332.7089 322.774 328.9946 338.2875 316.2438 341.0762 317.0917ZM414.7656 274.7072C394.2371 301.5814 401.4652 320.5409 408.6485 353.6666 368.1145 325.389 389.863 279.8101 397.8972 265.4986ZM473.1605 313.8831C473.1605 341.5391 455.9933 364.1729 428.3612 363.5229 416.7309 363.5229 410.7611 352.8159 409.5451 343.8111 413.8166 347.01 416.1515 348.2901 424.7753 348.2901 468.1511 348.2901 461.3315 298.0346 450.0485 269.43L457.9268 265.4986C464.4417 279.1264 473.1605 294.4111 473.1605 313.8831ZM612.0768 360.7812 603.1689 364.6769C596.3241 344.3598 593.1754 325.9962 593.1224 303.3309 593.0969 291.4645 594.1363 276.9613 596.2501 264.219L615.5289 274.6449C614.6308 278.2698 611.5657 295.4044 610.3715 300.8665 605.2935 324.0856 609.1115 340.1014 612.0768 360.7812ZM290.2615 359.8041 280.6532 364.407C272.9526 334.8524 264.3369 299.1668 276.6796 265.4124 280.4649 267.3315 286.3071 270.9264 293.9981 272.8672 287.1145 299.4911 283.3322 325.4318 290.2615 359.8041ZM371.787 361.95C374.3229 362.5387 381.57 364.5201 387.4277 364.411 359.7695 331.71 353.6864 307.8856 346.0473 272.6376 331.9339 267.6994 328.7676 267.1645 323.9799 265.2024 324.2752 266.508 324.5051 268.8296 326.0072 273.9546 330.8754 290.5634 352.5129 334.6909 371.787 361.95ZM516.1085 277.9727C515.2017 278.0711 498.7321 271.8822 497.8667 272.0897 504.6934 268.6569 517.911 265.8645 529.4475 265.8645 548.2579 265.8645 572.5372 281.145 572.3393 301.7021 572.0182 334.6489 535.4892 332.401 521.07 311.0825 540.1769 322.5311 551.3956 311.3237 551.7272 298.5018 552.0436 286.2283 531.0842 274.4124 516.1085 277.9727M556.9594 328.6826C561.3117 330.1209 563.6115 330.2498 566.2466 333.1834 568.8989 336.1371 571.1465 339.717 570.7383 343.9015 567.4136 377.8809 506.9605 366.6302 491.0709 353.3828 488.9971 346.8362 486.2024 339.8108 482.6684 332.3041 494.6219 345.522 548.6528 365.199 556.7536 346.1128 560.268 337.8404 549.0238 332.3452 541.6614 328.176 549.7631 329.718 558.8459 328.2058 556.9594 328.6826ZM512.085 281.8083C514.0358 290.2445 513.3399 329.0176 516.5867 343.8312 516.5459 342.0811 498.2083 332.9127 498.4801 331.2269 500.5426 318.5192 503.0751 291.7494 505.4737 280.495 505.8893 278.5382 508.4314 280.8 512.085 281.8083" fill="#231f20" fill-rule="evenodd"/>
<path transform="matrix(1,0,0,-1,0,595.2756)" d="M160.8355 238.2072H163.9624V226.2685C163.9624 224.3412 163.77 222.9043 163.383 221.9615 162.9975 221.017 162.4212 220.2908 161.6516 219.7874 160.8837 219.2771 159.9409 219.0271 158.8167 219.0271 157.3311 219.0271 156.1663 219.5359 155.3298 220.5553 154.4907 221.5794 154.0638 223.115 154.0562 225.1755L157.0022 225.5868C157.038 224.4801 157.1769 223.6952 157.4283 223.2346 157.7625 222.5971 158.2634 222.2804 158.9304 222.2804 159.5826 222.2804 160.0642 222.5086 160.3706 222.9701 160.6833 223.4279 160.8355 224.447 160.8355 226.0267ZM191.7003 219.3471H188.3055L186.9531 223.634H180.7804L179.5068 219.3471H176.1857L182.2076 238.2072H185.5134ZM185.9519 226.8088 183.8265 233.8078 181.7317 226.8088ZM203.8357 219.3471V238.2072H208.8553C210.7281 238.2072 211.9465 238.1173 212.5233 237.9359 213.4409 237.6462 214.1957 237.0212 214.7922 236.0752 215.39 235.1217 215.6879 233.8957 215.6879 232.3936 215.6879 231.0284 215.4305 229.8861 214.916 228.9648 214.4018 228.0427 213.7564 227.3973 212.9848 227.0242 212.2143 226.6503 210.8854 226.4621 208.9947 226.4621H206.9493V219.3471ZM206.9493 235.0157V229.6667H208.6758C209.8352 229.6667 210.6215 229.7455 211.0388 229.9082 211.4512 230.0717 211.7923 230.3651 212.0576 230.7906 212.324 231.2184 212.4564 231.7343 212.4564 232.3539 212.4564 232.9773 212.3201 233.5105 212.0482 233.9365 211.7721 234.3665 211.4328 234.6503 211.0289 234.7994 210.6249 234.9459 209.7729 235.0157 208.4703 235.0157ZM241.0994 219.3471H237.7037L236.353 223.634H230.178L228.9039 219.3471H225.5837L231.6047 238.2072H234.9111ZM235.3496 226.8088 233.2261 233.8078 231.1305 226.8088ZM253.2742 219.3471V238.2072H256.3146L262.6418 225.6137V238.2072H265.549V219.3471H262.408L256.1805 231.6487V219.3471ZM278.5365 225.4822 281.5838 225.8478C281.9259 223.435 283.0496 222.2286 284.9556 222.2286 285.8953 222.2286 286.6368 222.4726 287.1788 222.9701 287.7225 223.4631 287.9906 224.0734 287.9906 224.8016 287.9906 225.2313 287.8977 225.597 287.7086 225.894 287.5215 226.1976 287.2298 226.444 286.8443 226.6373 286.4574 226.8306 285.5254 227.1501 284.0428 227.607 282.7111 228.0118 281.738 228.4461 281.1217 228.9223 280.5024 229.3914 280.0111 230.0094 279.648 230.7779 279.282 231.5463 279.1015 232.3715 279.1015 233.2553 279.1015 234.2837 279.3353 235.2081 279.8014 236.0358 280.2696 236.8562 280.9168 237.4798 281.738 237.9008 282.562 238.3177 283.5763 238.5289 284.7886 238.5289 286.6065 238.5289 288.0255 238.0363 289.0431 237.0487 290.0667 236.0645 290.607 234.6503 290.6646 232.8148L287.5425 232.6487C287.4008 233.6641 287.1079 234.3699 286.651 234.7747 286.198 235.173 285.5486 235.3757 284.7107 235.3757 283.8708 235.3757 283.2208 235.2008 282.7672 234.8498 282.3117 234.4969 282.0835 234.0638 282.0835 233.5357 282.0835 233.0226 282.2902 232.5934 282.704 232.2391 283.1145 231.8854 284.0649 231.5032 285.5441 231.0809 287.115 230.6242 288.2497 230.1466 288.9482 229.6454 289.6447 229.144 290.1813 228.4943 290.5509 227.7054 290.9183 226.908 291.1037 225.9482 291.1037 224.8146 291.1037 223.177 290.5988 221.8014 289.5925 220.6868 288.5831 219.5714 287.0059 219.0144 284.8643 219.0144 281.0721 219.0144 278.962 221.1701 278.5365 225.4822ZM304.2527 219.3471V238.2072H307.3671V229.8328L313.6859 238.2072H317.8933L312.0661 230.8612 318.2012 219.3471H314.1601L309.9005 228.2009 307.3671 225.0471V219.3471ZM333.7829 219.3471V235.0157H329.1897V238.2072H341.4764V235.0157H336.8968V219.3471ZM372.0464 219.3471V238.2072H375.16V229.8328L381.479 238.2072H385.6864L379.8598 230.8612 385.9937 219.3471H381.9555L377.6941 228.2009 375.16 225.0471V219.3471ZM397.476 228.6609C397.476 230.9114 397.8048 232.7584 398.4735 234.212 399.136 235.6656 400.0048 236.7499 401.076 237.4617 402.1475 238.1732 403.448 238.5289 404.9756 238.5289 407.1895 238.5289 408.9906 237.6853 410.3864 235.9964 411.7793 234.303 412.4761 231.8973 412.4761 228.7755 412.4761 225.6211 411.7394 223.1546 410.2628 221.3793 408.9685 219.8075 407.2119 219.0271 404.9895 219.0271 402.7499 219.0271 400.9844 219.8038 399.6884 221.3546 398.2133 223.1277 397.476 225.5658 397.476 228.6609ZM400.6905 228.7885C400.6905 226.6194 401.1021 224.9946 401.9233 223.9106 402.7499 222.8261 403.7678 222.2804 404.9895 222.2804 406.2138 222.2804 407.2294 222.8207 408.0373 223.8973 408.8455 224.9734 409.2446 226.6243 409.2446 228.856 409.2446 231.0423 408.8531 232.6581 408.0688 233.708 407.2856 234.7532 406.2589 235.2756 404.9895 235.2756 403.7199 235.2756 402.6832 234.7478 401.8887 233.6936 401.0888 232.6368 400.6905 231.0015 400.6905 228.7885ZM401.4275 240.2033V243.3025H403.9758V240.2033ZM405.9694 240.2033V243.3025H408.515V240.2033ZM425.4324 219.3471V238.2072H428.5457V229.8328L434.8647 238.2072H439.0722L433.2453 230.8612 439.3794 219.3471H435.3406L431.0793 228.2009 428.5457 225.0471V219.3471ZM483.1909 221.6477 481.3843 218.8602C480.5116 219.3741 479.6685 220.0941 478.8507 221.0196 478.2104 220.3084 477.5326 219.7956 476.8265 219.4835 476.121 219.168 475.3001 219.0144 474.3638 219.0144 472.5009 219.0144 471.1229 219.5807 470.2263 220.7132 469.3306 221.8411 468.8833 223.1104 468.8833 224.5207 468.8833 226.944 470.0551 228.8718 472.4093 230.2951 471.3497 231.8051 470.8247 233.1842 470.8247 234.4405 470.8247 235.6472 471.2204 236.6325 472.0107 237.3919 472.7957 238.1519 473.8459 238.5289 475.1501 238.5289 476.411 238.5289 477.4363 238.1326 478.228 237.3386 479.0228 236.5495 479.4177 235.5165 479.4177 234.248 479.4177 233.43 479.2207 232.6825 478.821 231.9987 478.4207 231.3187 477.6837 230.5633 476.6034 229.7285L478.751 226.2685C478.9916 226.7997 479.2073 227.5143 479.4058 228.4155L482.0834 227.6731C481.6712 225.8374 481.2216 224.5419 480.7443 223.7868 481.0691 223.42 481.4963 223.0061 482.0216 222.5483 482.5539 222.0962 482.9406 221.798 483.1909 221.6477ZM475.1232 231.9032 475.9189 232.6487C476.511 233.2083 476.8047 233.754 476.8047 234.2954 476.8047 234.7968 476.6567 235.2008 476.3574 235.5114 476.0589 235.8238 475.6816 235.9811 475.2247 235.9811 474.7808 235.9811 474.4151 235.8465 474.1396 235.5687 473.8589 235.296 473.7186 234.9638 473.7186 234.5681 473.7186 234.1103 473.9423 233.5674 474.3907 232.9345ZM473.9508 227.9795C473.2923 227.5676 472.7883 227.0676 472.4396 226.4834 472.0941 225.894 471.9172 225.2801 471.9172 224.6343 471.9172 223.8304 472.1374 223.1898 472.5675 222.7119 473.0017 222.2365 473.5559 222.0007 474.2362 222.0007 475.1189 222.0007 476.0314 222.4786 476.9756 223.4401ZM518.8286 225.4822 521.875 225.8478C522.2183 223.435 523.3422 222.2286 525.2494 222.2286 526.1873 222.2286 526.9317 222.4726 527.4714 222.9701 528.0134 223.4631 528.2827 224.0734 528.2827 224.8016 528.2827 225.2313 528.1914 225.597 528.0021 225.894 527.813 226.1976 527.5227 226.444 527.1355 226.6373 526.7503 226.8306 525.82 227.1501 524.3352 227.607 523.0049 228.0118 522.0283 228.4461 521.4144 228.9223 520.7947 229.3914 520.3023 230.0094 519.9398 230.7779 519.5747 231.5463 519.3955 232.3715 519.3955 233.2553 519.3955 234.2837 519.6277 235.2081 520.0929 236.0358 520.5623 236.8562 521.2077 237.4798 522.0283 237.9008 522.8561 238.3177 523.8706 238.5289 525.0815 238.5289 526.9003 238.5289 528.3181 238.0363 529.3363 237.0487 530.3591 236.0645 530.8999 234.6503 530.9575 232.8148L527.8348 232.6487C527.6951 233.6641 527.4003 234.3699 526.9431 234.7747 526.4918 235.173 525.8412 235.3757 525.001 235.3757 524.1631 235.3757 523.514 235.2008 523.0607 234.8498 522.6041 234.4969 522.3762 234.0638 522.3762 233.5357 522.3762 233.0226 522.5831 232.5934 522.9955 232.2391 523.4077 231.8854 524.3564 231.5032 525.8358 231.0809 527.4088 230.6242 528.5421 230.1466 529.2397 229.6454 529.9387 229.144 530.4742 228.4943 530.8435 227.7054 531.2126 226.908 531.3963 225.9482 531.3963 224.8146 531.3963 223.177 530.8911 221.8014 529.8857 220.6868 528.8749 219.5714 527.2985 219.0144 525.1572 219.0144 521.3665 219.0144 519.2541 221.1701 518.8286 225.4822ZM544.4855 238.2072H547.5969V227.9942C547.5969 226.4046 547.6334 225.3733 547.7117 224.8937 547.8494 224.0578 548.1774 223.42 548.6967 222.9616 549.2134 222.5086 549.8983 222.2804 550.7467 222.2804 551.4667 222.2804 552.056 222.4437 552.5113 222.7649 552.9637 223.0841 553.2749 223.5342 553.4436 224.1037 553.61 224.6681 553.6933 225.894 553.6933 227.7757V238.2072H556.8191V228.3009C556.8191 225.7713 556.6853 223.9413 556.4171 222.8162 556.1419 221.6869 555.5392 220.7764 554.5894 220.0754 553.6395 219.3741 552.3902 219.0271 550.8394 219.0271 549.2282 219.0271 547.9671 219.3154 547.0614 219.8971 546.1586 220.4717 545.5035 221.2869 545.0961 222.3369 544.6891 223.3879 544.4855 225.3249 544.4855 228.1482ZM569.8083 225.4822 572.8547 225.8478C573.1965 223.435 574.321 222.2286 576.2296 222.2286 577.1676 222.2286 577.9108 222.4726 578.4514 222.9701 578.9945 223.4631 579.2618 224.0734 579.2618 224.8016 579.2618 225.2313 579.1706 225.597 578.9809 225.894 578.7918 226.1976 578.5024 226.444 578.1155 226.6373 577.7294 226.8306 576.7991 227.1501 575.3151 227.607 573.984 228.0118 573.0083 228.4461 572.3943 228.9223 571.7752 229.3914 571.2829 230.0094 570.9192 230.7779 570.5538 231.5463 570.3749 232.3715 570.3749 233.2553 570.3749 234.2837 570.6079 235.2081 571.0714 236.0358 571.5425 236.8562 572.1871 237.4798 573.0083 237.9008 573.8355 238.3177 574.8497 238.5289 576.0598 238.5289 577.8797 238.5289 579.2975 238.0363 580.3155 237.0487 581.3391 236.0645 581.8788 234.6503 581.9369 232.8148L578.8148 232.6487C578.6751 233.6641 578.3803 234.3699 577.9225 234.7747 577.4703 235.173 576.8201 235.3757 575.9816 235.3757 575.1428 235.3757 574.4934 235.2008 574.0401 234.8498 573.5829 234.4969 573.3553 234.0638 573.3553 233.5357 573.3553 233.0226 573.5628 232.5934 573.9761 232.2391 574.3868 231.8854 575.3367 231.5032 576.8161 231.0809 578.3888 230.6242 579.5212 230.1466 580.2182 229.6454 580.9175 229.144 581.4533 228.4943 581.8235 227.7054 582.1917 226.908 582.376 225.9482 582.376 224.8146 582.376 223.177 581.8706 221.8014 580.8654 220.6868 579.8537 219.5714 578.2785 219.0144 576.1369 219.0144 572.3464 219.0144 570.2335 221.1701 569.8083 225.4822ZM595.4987 219.3471V238.2072H598.6134V230.7869H604.7379V238.2072H607.866V219.3471H604.7379V227.5957H598.6134V219.3471ZM621.4813 219.3471V238.2072H624.5946V219.3471Z" fill="#ed2029"/>
<path transform="matrix(1,0,0,-1,0,595.2756)" d="M637.4296 469.0108C637.4296 465.9457 639.0289 464.8218 639.229 462.4084 636.0973 462.1476 633.2253 459.7081 633.2253 456.4057V446.2002C611.9858 441.7061 590.0074 417.8285 590.0777 391.7305 596.7437 386.1079 606.5878 381.848 614.9211 378.5003 615.469 378.8649 616.4184 381.748 616.4184 382.5729 616.4184 384.2453 614.018 385.6343 614.018 389.776 614.018 400.5159 618.9194 411.9851 632.0265 411.9851 641.2399 411.9851 644.521 408.3687 650.0327 402.3805 654.9282 408.3015 657.5326 411.9851 666.2412 411.9851 679.8362 411.9851 684.9556 402.5271 686.0492 390.975 686.7451 385.7992 681.9996 383.0006 681.9996 382.8937 680.94 381.2377 681.7895 379.9392 682.4503 378.3818 685.8927 378.9128 708.861 385.9413 708.861 389.1756 708.861 429.4157 675.3234 443.7629 661.3104 446.0854 661.0218 447.9219 661.7208 451.7277 660.8843 456.9012 660.1799 459.646 658.5664 462.0875 655.437 462.4084 656.1581 465.1064 657.2367 464.9409 657.2367 469.1563 657.2367 474.7292 652.8053 478.6152 647.1609 478.6152 641.09 478.1611 637.4296 474.787 637.4296 469.0108" fill="#10191b" fill-rule="evenodd"/>
<path transform="matrix(1,0,0,-1,0,595.2756)" d="M724.9935 334.6401C716.252 341.6145 705.2 340.789 698.3487 336.5082 687.1759 329.5236 684.8283 317.3346 690.1753 306.7892L706.1071 315.1664 696.5271 312.5577 696.0169 314.735 705.4574 316.8017 695.7791 317.0826 695.8973 319.5431 705.6329 318.7128 696.5062 322.3443 697.6851 324.7189 706.4493 320.358 699.5254 327.1785 701.4798 328.9048 707.9618 321.6436 704.122 330.4151 706.3778 331.2655 709.5912 322.215 709.4594 331.6124 711.8388 331.5946 711.5105 322.1478 714.9827 330.9956 717.0826 330.1055 713.4021 321.1795Z" fill="#ed2029" fill-rule="evenodd"/>
<path transform="matrix(1,0,0,-1,0,595.2756)" d="M724.9351 372.3664 721.2433 375.0585 716.6659 373.7908 713.1549 348.0712 713.7074 374.0525 709.9288 375.99 705.7709 373.9912 707.2991 347.8524 702.6318 373.6837 698.1437 374.7453 695.1203 372.1878 700.8608 346.9677 691.6042 371.1396 686.7828 371.3873 684.2492 368.1646 695.666 343.9791 681.3369 366.6526 677.0251 366.1418 675.2018 362.6297 690.6946 341.159 672.156 360.2288 667.9542 358.9812 666.9522 355.2245 686.2062 337.0963 664.5141 352.391 660.4532 350.1235 660.0611 346.0192C660.0611 342.5513 680.021 335.4063 682.3032 331.9977L658.0641 342.3603 655.4894 340.4418 656.5813 334.5381 680.449 326.7272 654.1781 332.6343 651.361 329.2072 652.5751 324.1619 679.2715 320.453 652.0861 321.6436 650.1614 317.7337 652.2605 312.762 678.9801 314.4353 652.7945 309.7168 651.4217 304.9007 654.3626 301.8974 680.345 308.1376 655.4772 298.9001 655.437 293.7317 658.9769 291.0231 687.2771 305.2706C680.5919 317.3428 684.6185 332.511 697.2191 339.6461 706.3427 344.8128 718.7902 344.2277 727.0075 337.2497 729.1193 341.7086 743.4108 360.4819 745.0554 363.009L742.8311 366.81 737.896 367.3667C735.2433 363.7576 728.5292 348.3519 724.4501 344.8653L735.2473 368.7089 732.3171 372.0059 727.5603 371.6371C725.3062 364.5655 721.0454 353.9095 718.2286 347.0318Z" fill="#ed2029" fill-rule="evenodd"/>
<path transform="matrix(1,0,0,-1,0,595.2756)" d="M657.5258 375.6674C662.4147 378.7169 670.7611 379.8266 677.7462 381.5487 672.9287 379.0236 667.8244 377.1683 663.5908 373.2795 660.9404 372.8129 658.9148 373.6069 657.5258 375.6674" fill="#231f20" fill-rule="evenodd"/>
<path transform="matrix(1,0,0,-1,0,595.2756)" d="M644.2262 375.6674C639.3368 378.7169 630.987 379.8266 624.0053 381.5487 628.8219 379.0236 633.926 377.1683 638.1587 373.2795 640.8113 372.8129 642.8361 373.6069 644.2262 375.6674" fill="#231f20" fill-rule="evenodd"/>
<path transform="matrix(1,0,0,-1,0,595.2756)" d="M710.3327 320.038C711.7665 320.038 712.9267 318.9104 712.9267 317.5157 712.9267 316.1239 711.7665 314.9952 710.3327 314.9952 708.9024 314.9952 707.7387 316.1239 707.7387 317.5157 707.7387 318.9104 708.9024 320.038 710.3327 320.038" fill="#ed2029" fill-rule="evenodd"/>
<path transform="matrix(1,0,0,-1,0,595.2756)" d="M144.7143 395.1609V378.5596H132.1109L131.9882 395.2834ZM132.1109 409.7041H144.7143V397.4652H132.1109ZM132.1109 426.0631H144.7143V412.007H132.1109ZM96.3587 441.3319H105.3281V418.3078H96.3587ZM131.9899 369.5913V376.3786H170.0433C170.6094 376.5098 171.1344 376.7706 171.1344 377.4688 171.1344 378.2285 164.408 383.2863 163.9837 383.2863 163.5508 383.2863 159.6302 378.5596 159.0143 378.5596H149.5624V395.2834H165.8018C166.3407 395.2834 167.0151 395.7225 167.0151 396.2526 167.0151 397.309 164.9378 398.5597 164.1549 399.09 163.7002 399.3968 160.9359 401.4621 160.7117 401.4621 160.2831 401.4621 157.0521 397.4652 156.4705 397.4652H149.5624V409.7041H164.954C165.4486 409.7041 166.288 410.2302 166.288 410.6727 166.288 411.9738 161.1295 415.239 159.9849 416.0047 159.0265 415.3637 156.4775 412.007 155.5013 412.007H149.5624V426.0631H167.8623C168.442 426.0631 169.1957 426.4835 169.1957 427.1545 169.1957 428.3118 163.2915 432.3385 162.1327 433.1251L157.3523 428.3328 157.4396 428.2441 146.931 428.294 156.5909 445.8172H158.046C158.7475 445.8172 160.2266 446.1829 160.2266 446.7858V446.9071C160.2266 448.1932 157.8379 448.9421 156.8174 449.3163 155.9225 449.6471 153.2262 450.8439 152.4699 450.906 152.1408 449.4912 151.1935 446.5174 150.6523 445.2114 149.9791 443.5801 149.3198 441.2577 148.7837 439.4443 148.2409 437.6092 147.4435 435.64 146.8967 433.8198 146.6113 432.8719 146.2893 431.943 145.9712 430.986 145.8003 430.4738 145.2824 428.2441 144.8348 428.2441H133.8063C133.4761 428.2441 132.2419 429.4386 131.7458 429.6986 131.8961 430.3429 134.8413 436.14 135.3821 437.2132 136.6095 439.6388 137.5401 442.6328 138.7755 444.9694 139.7846 444.9694 142.4106 444.8795 142.4106 445.6956 142.4106 446.9485 139.8331 448.2405 138.8577 448.8072 137.992 449.31 135.3926 451.0993 134.6547 451.2699 133.988 448.4035 133.0291 445.4855 132.1852 442.7141 131.3297 439.9084 130.424 437.0037 129.3619 434.3885 127.078 428.7773 125.1113 424.1324 122.4065 419.0253L118.6591 422.3066C117.9077 421.8046 114.9423 418.3078 114.4159 418.3078H110.1753V441.3319H123.7484C124.2077 441.3319 124.9597 441.7529 124.9597 442.1823V442.4241C124.9597 443.4766 122.4969 445.002 121.7078 445.595 120.6938 446.3592 118.95 447.8236 117.9306 448.3607 117.597 447.8641 113.2534 443.5152 112.9618 443.5152H83.7558V441.3319H91.6328V418.3078H83.3919V416.0047H104.2367C103.4901 414.5916 102.848 412.865 102.0957 411.3601 101.3978 409.9637 100.4553 408.2664 99.6307 407.0373 97.852 404.388 96.0233 401.396 93.9645 399.0107 91.8196 396.5258 89.9838 393.9242 87.6609 391.6182 86.5295 390.4937 85.5417 389.2538 84.3911 388.103 83.3465 387.0573 81.5732 385.9662 81.5732 384.0131H81.938C83.4432 384.0131 93.2956 392.8827 94.7523 394.3423 96.4933 396.0879 98.8257 398.4851 100.2858 400.447 100.7184 401.0267 105.3255 407.0361 105.3281 407.0387 105.3281 399.2014 105.3281 391.3645 105.3281 383.5278 105.3281 379.2671 106.3225 375.0341 102.6391 374.4612 100.8575 374.1843 91.5106 375.1804 91.5106 373.7129 91.5106 372.888 93.9118 372.5923 94.6874 372.4047 95.8235 372.1286 97.2351 371.7723 98.3466 371.5792 102.56 370.8485 99.426 367.0461 102.782 367.0461H103.2673C106.9058 367.0461 110.1753 371.6422 110.1753 375.5293V416.0047H120.4761C120.0331 414.1071 116.1145 409.7381 116.1145 408.1272H116.5963C117.6287 408.1272 121.7336 412.8959 122.4145 413.8237 123.2039 414.8957 124.0495 415.9182 124.8883 417.0467 125.6896 418.1236 126.4603 419.5672 127.2637 420.4899 127.2637 411.4412 127.2637 402.3913 127.2637 393.3451 127.2637 388.8204 127.2637 384.2955 127.2637 379.7711 127.2637 377.5099 127.2637 375.2464 127.2637 372.9852 127.2637 371.2893 126.6661 367.2904 128.3539 367.2904 129.3959 367.2904 131.5894 368.9932 131.9899 369.5913" fill="#231f20" fill-rule="evenodd"/>
</svg>
